<!DOCTYPE svg PUBLIC "-//W3C//DTD SVG 1.1//EN" "http://www.w3.org/Graphics/SVG/1.1/DTD/svg11.dtd">
<!-- Uploaded to: SVG Repo, www.svgrepo.com, Transformed by: SVG Repo Mixer Tools -->
<svg fill="#ffffff" width="800px" height="800px" viewBox="0 0 24 24" xmlns="http://www.w3.org/2000/svg" stroke="#ffffff">
<g id="SVGRepo_bgCarrier" stroke-width="0"/>
<g id="SVGRepo_tracerCarrier" stroke-linecap="round" stroke-linejoin="round"/>
<g id="SVGRepo_iconCarrier">
<path d="M16 3H8c-1.103 0-2 .897-2 2v14c0 1.103.897 2 2 2h8c1.103 0 2-.897 2-2V5c0-1.103-.897-2-2-2zM2 7v10c0 1.103.897 2 2 2V5c-1.103 0-2 .897-2 2zm18-2v14c1.103 0 2-.897 2-2V7c0-1.103-.897-2-2-2z"/>
</g>
</svg>